<svg width="1918" height="951" viewBox="0 0 1918 951" fill="none" xmlns="http://www.w3.org/2000/svg">
<mask id="mask0_101_1524" style="mask-type:alpha" maskUnits="userSpaceOnUse" x="-2" y="0" width="1920" height="951">
<rect x="-2" width="1920" height="951" fill="#D9D9D9"/>
</mask>
<g mask="url(#mask0_101_1524)">
<path d="M600 929.526C404.493 929.526 292.153 861.013 -1.99988 861.013V55.2192H1918V834.426C1694.5 822.155 1707.05 847.391 1604.5 869.705C1454.92 895.066 1389.06 891.993 1280 871.108C1117.92 840.067 951 893.224 951 893.224C951 893.224 750.078 929.526 600 929.526Z" fill="url(#paint0_linear_101_1524)"/>
<path d="M574.5 898.337C378.993 898.337 292.153 861.782 -1.99988 861.782V0H1918V834.432C1814.45 822.222 1756.92 820.572 1654.36 842.885C1504.78 868.246 1420.74 855.317 1311.68 834.432C1149.6 803.39 970.006 848.551 970.006 848.551C970.006 848.551 724.578 898.337 574.5 898.337Z" fill="url(#paint1_linear_101_1524)"/>
<path fill-rule="evenodd" clip-rule="evenodd" d="M348.217 891.021C420.809 899.145 486.695 906.518 574.5 906.518C724.579 906.518 970.007 856.732 970.007 856.732C970.007 856.732 1010.27 846.608 1069.87 839.242C964.201 838.782 883.501 828.62 883.501 828.62C883.501 828.62 722.501 808.495 592.501 808.495C504.695 808.495 435.178 822.141 358.587 837.175C289.819 850.674 215.347 865.293 116.815 872.159C212.976 875.886 283.28 883.754 348.217 891.021ZM1918 842.612V841.628C1915.13 841.628 1912.3 841.626 1909.51 841.623C1912.3 841.945 1915.13 842.275 1918 842.612ZM1732.98 837.541C1694.14 835 1665.32 831.26 1626.96 826.284C1615.78 824.833 1603.79 823.277 1590.5 821.616C1458.5 805.106 1405.56 801.477 1296.5 821.616C1271.47 826.238 1245.87 829.764 1220.28 832.402C1250.5 833.672 1281.4 836.812 1311.68 842.612C1420.74 863.498 1504.79 876.427 1654.36 851.066C1683.51 844.725 1709.02 840.319 1732.98 837.541Z" fill="url(#paint2_linear_101_1524)"/>
<g filter="url(#filter0_d_101_1524)">
<path d="M1918 832.53V1088.48H-2V859.117C292.15 859.117 404.49 927.63 600 927.63C750.08 927.63 959 888.623 959 888.623C959 888.623 1117.92 838.165 1280 869.21C1389.06 890.091 1449.92 893.02 1599.5 867.66C1708 842.457 1734 818.065 1918 832.53Z" fill="white"/>
</g>
</g>
<defs>
<filter id="filter0_d_101_1524" x="-32" y="773.205" width="1980" height="320.278" filterUnits="userSpaceOnUse" color-interpolation-filters="sRGB">
<feFlood flood-opacity="0" result="BackgroundImageFix"/>
<feColorMatrix in="SourceAlpha" type="matrix" values="0 0 0 0 0 0 0 0 0 0 0 0 0 0 0 0 0 0 127 0" result="hardAlpha"/>
<feOffset dy="-25"/>
<feGaussianBlur stdDeviation="15"/>
<feComposite in2="hardAlpha" operator="out"/>
<feColorMatrix type="matrix" values="0 0 0 0 0 0 0 0 0 0 0 0 0 0 0 0 0 0 0.45 0"/>
<feBlend mode="normal" in2="BackgroundImageFix" result="effect1_dropShadow_101_1524"/>
<feBlend mode="normal" in="SourceGraphic" in2="effect1_dropShadow_101_1524" result="shape"/>
</filter>
<linearGradient id="paint0_linear_101_1524" x1="895.5" y1="695.355" x2="1269.47" y2="937.18" gradientUnits="userSpaceOnUse">
<stop stop-color="#FF38A5"/>
<stop offset="1" stop-color="#00918A"/>
</linearGradient>
<linearGradient id="paint1_linear_101_1524" x1="486.254" y1="-71.73" x2="691.524" y2="1166.16" gradientUnits="userSpaceOnUse">
<stop stop-color="#43003F"/>
<stop offset="0.489583" stop-color="#211044"/>
<stop offset="1" stop-color="#003634"/>
</linearGradient>
<linearGradient id="paint2_linear_101_1524" x1="1004" y1="703.024" x2="1004" y2="867.66" gradientUnits="userSpaceOnUse">
<stop stop-color="white"/>
<stop offset="0.09375" stop-color="#704DB8" stop-opacity="0.915625"/>
<stop offset="1" stop-color="#8758E7" stop-opacity="0.1"/>
</linearGradient>
</defs>
</svg>
